<svg width="306" height="312" viewBox="0 0 306 312" fill="none" xmlns="http://www.w3.org/2000/svg">
<path d="M82.8559 132.44C79.6826 132.44 77.0693 131.52 75.0159 129.68L77.5359 125.32C79.0026 126.707 80.7759 127.4 82.8559 127.4C84.9359 127.4 86.5626 126.667 87.7359 125.2C88.9359 123.707 89.5359 121.933 89.5359 119.88V119.28C88.8426 120.24 87.8693 121.053 86.6159 121.72C85.3626 122.387 84.0426 122.72 82.6559 122.72C80.1226 122.72 77.9626 121.96 76.1759 120.44C74.4159 118.893 73.5359 116.76 73.5359 114.04C73.5359 111.4 74.4826 109.213 76.3759 107.48C78.2959 105.747 80.7626 104.88 83.7759 104.88C86.3626 104.88 88.5359 105.52 90.2959 106.8C92.0826 108.08 93.3493 109.733 94.0959 111.76C94.8693 113.76 95.2559 116.067 95.2559 118.68C95.2559 122.787 94.1493 126.107 91.9359 128.64C89.7493 131.173 86.7226 132.44 82.8559 132.44ZM84.2559 117.84C86.3893 117.84 88.1359 117.013 89.4959 115.36C89.3626 113.867 88.8559 112.587 87.9759 111.52C87.0959 110.453 85.7893 109.92 84.0559 109.92C82.6159 109.92 81.4693 110.32 80.6159 111.12C79.7626 111.92 79.3359 112.827 79.3359 113.84C79.3359 115.147 79.8159 116.147 80.7759 116.84C81.7359 117.507 82.8959 117.84 84.2559 117.84ZM107.192 132.44C104.019 132.44 101.405 131.52 99.3519 129.68L101.872 125.32C103.339 126.707 105.112 127.4 107.192 127.4C109.272 127.4 110.899 126.667 112.072 125.2C113.272 123.707 113.872 121.933 113.872 119.88V119.28C113.179 120.24 112.205 121.053 110.952 121.72C109.699 122.387 108.379 122.72 106.992 122.72C104.459 122.72 102.299 121.96 100.512 120.44C98.7519 118.893 97.8719 116.76 97.8719 114.04C97.8719 111.4 98.8185 109.213 100.712 107.48C102.632 105.747 105.099 104.88 108.112 104.88C110.699 104.88 112.872 105.52 114.632 106.8C116.419 108.08 117.685 109.733 118.432 111.76C119.205 113.76 119.592 116.067 119.592 118.68C119.592 122.787 118.485 126.107 116.272 128.64C114.085 131.173 111.059 132.44 107.192 132.44ZM108.592 117.84C110.725 117.84 112.472 117.013 113.832 115.36C113.699 113.867 113.192 112.587 112.312 111.52C111.432 110.453 110.125 109.92 108.392 109.92C106.952 109.92 105.805 110.32 104.952 111.12C104.099 111.92 103.672 112.827 103.672 113.84C103.672 115.147 104.152 116.147 105.112 116.84C106.072 117.507 107.232 117.84 108.592 117.84ZM128.748 130.04C128.748 131.507 128.375 132.88 127.628 134.16C126.882 135.467 125.882 136.573 124.628 137.48L122.428 135.68C123.095 135.333 123.735 134.787 124.348 134.04C124.962 133.32 125.348 132.613 125.508 131.92C125.268 132 125.015 132.04 124.748 132.04C123.975 132.04 123.322 131.773 122.788 131.24C122.282 130.707 122.028 130.013 122.028 129.16C122.028 128.28 122.335 127.533 122.948 126.92C123.562 126.28 124.295 125.96 125.148 125.96C126.135 125.96 126.975 126.333 127.668 127.08C128.388 127.8 128.748 128.787 128.748 130.04ZM140.903 132.44C137.729 132.44 135.116 131.52 133.063 129.68L135.583 125.32C137.049 126.707 138.823 127.4 140.903 127.4C142.983 127.4 144.609 126.667 145.783 125.2C146.983 123.707 147.583 121.933 147.583 119.88V119.28C146.889 120.24 145.916 121.053 144.663 121.72C143.409 122.387 142.089 122.72 140.703 122.72C138.169 122.72 136.009 121.96 134.223 120.44C132.463 118.893 131.583 116.76 131.583 114.04C131.583 111.4 132.529 109.213 134.423 107.48C136.343 105.747 138.809 104.88 141.823 104.88C144.409 104.88 146.583 105.52 148.343 106.8C150.129 108.08 151.396 109.733 152.143 111.76C152.916 113.76 153.303 116.067 153.303 118.68C153.303 122.787 152.196 126.107 149.983 128.64C147.796 131.173 144.769 132.44 140.903 132.44ZM142.303 117.84C144.436 117.84 146.183 117.013 147.543 115.36C147.409 113.867 146.903 112.587 146.023 111.52C145.143 110.453 143.836 109.92 142.103 109.92C140.663 109.92 139.516 110.32 138.663 111.12C137.809 111.92 137.383 112.827 137.383 113.84C137.383 115.147 137.863 116.147 138.823 116.84C139.783 117.507 140.943 117.84 142.303 117.84ZM165.239 132.44C162.065 132.44 159.452 131.52 157.399 129.68L159.919 125.32C161.385 126.707 163.159 127.4 165.239 127.4C167.319 127.4 168.945 126.667 170.119 125.2C171.319 123.707 171.919 121.933 171.919 119.88V119.28C171.225 120.24 170.252 121.053 168.999 121.72C167.745 122.387 166.425 122.72 165.039 122.72C162.505 122.72 160.345 121.96 158.559 120.44C156.799 118.893 155.919 116.76 155.919 114.04C155.919 111.4 156.865 109.213 158.759 107.48C160.679 105.747 163.145 104.88 166.159 104.88C168.745 104.88 170.919 105.52 172.679 106.8C174.465 108.08 175.732 109.733 176.479 111.76C177.252 113.76 177.639 116.067 177.639 118.68C177.639 122.787 176.532 126.107 174.319 128.64C172.132 131.173 169.105 132.44 165.239 132.44ZM166.639 117.84C168.772 117.84 170.519 117.013 171.879 115.36C171.745 113.867 171.239 112.587 170.359 111.52C169.479 110.453 168.172 109.92 166.439 109.92C164.999 109.92 163.852 110.32 162.999 111.12C162.145 111.92 161.719 112.827 161.719 113.84C161.719 115.147 162.199 116.147 163.159 116.84C164.119 117.507 165.279 117.84 166.639 117.84ZM191.295 132.48C186.895 132.48 183.468 131.147 181.015 128.48L184.175 124.52C186.041 126.467 188.401 127.44 191.255 127.44C192.775 127.44 193.975 127.067 194.855 126.32C195.761 125.547 196.215 124.6 196.215 123.48C196.215 122.28 195.788 121.32 194.935 120.6C194.081 119.88 192.908 119.52 191.415 119.52C189.201 119.52 187.335 120.24 185.815 121.68L181.855 120.64V105.32H200.175V110.32H187.535V116.84C189.028 115.347 190.988 114.6 193.415 114.6C195.788 114.6 197.801 115.387 199.455 116.96C201.135 118.533 201.975 120.627 201.975 123.24C201.975 126.067 201.001 128.32 199.055 130C197.108 131.653 194.521 132.48 191.295 132.48ZM211.191 118.2C209.191 118.2 207.564 117.587 206.311 116.36C205.057 115.107 204.431 113.533 204.431 111.64C204.431 109.72 205.057 108.12 206.311 106.84C207.564 105.56 209.191 104.92 211.191 104.92C213.217 104.92 214.857 105.56 216.111 106.84C217.364 108.12 217.991 109.72 217.991 111.64C217.991 113.533 217.364 115.107 216.111 116.36C214.857 117.587 213.217 118.2 211.191 118.2ZM211.591 132H208.591L225.631 105.32H228.671L211.591 132ZM230.751 130.6C229.497 131.853 227.871 132.48 225.871 132.48C223.871 132.48 222.244 131.853 220.991 130.6C219.737 129.347 219.111 127.773 219.111 125.88C219.111 123.96 219.737 122.36 220.991 121.08C222.244 119.8 223.871 119.16 225.871 119.16C227.871 119.16 229.497 119.8 230.751 121.08C232.031 122.36 232.671 123.96 232.671 125.88C232.671 127.773 232.031 129.347 230.751 130.6ZM211.191 115.08C212.124 115.08 212.884 114.773 213.471 114.16C214.057 113.52 214.351 112.68 214.351 111.64C214.351 110.547 214.057 109.68 213.471 109.04C212.884 108.4 212.124 108.08 211.191 108.08C210.257 108.08 209.497 108.4 208.911 109.04C208.324 109.68 208.031 110.547 208.031 111.64C208.031 112.653 208.324 113.48 208.911 114.12C209.524 114.76 210.284 115.08 211.191 115.08ZM223.591 128.44C224.177 129.053 224.937 129.36 225.871 129.36C226.804 129.36 227.564 129.053 228.151 128.44C228.764 127.8 229.071 126.947 229.071 125.88C229.071 124.787 228.764 123.92 228.151 123.28C227.564 122.64 226.804 122.32 225.871 122.32C224.937 122.32 224.177 122.64 223.591 123.28C223.004 123.92 222.711 124.787 222.711 125.88C222.711 126.947 223.004 127.8 223.591 128.44Z" fill="white"/>
<circle cx="153" cy="120" r="119" stroke="white" stroke-width="2"/>
<circle cx="153" cy="120" r="109" stroke="white" stroke-width="2"/>
<path d="M65.8449 284H64.0369L58.4689 276.384V284H56.5969V273.328H58.5169L63.9729 280.736V273.328H65.8449V284ZM68.8966 275.328C68.6192 275.328 68.3739 275.227 68.1606 275.024C67.9579 274.821 67.8566 274.576 67.8566 274.288C67.8566 274 67.9579 273.755 68.1606 273.552C68.3739 273.349 68.6192 273.248 68.8966 273.248C69.1846 273.248 69.4299 273.349 69.6326 273.552C69.8352 273.755 69.9366 274 69.9366 274.288C69.9366 274.576 69.8352 274.821 69.6326 275.024C69.4299 275.227 69.1846 275.328 68.8966 275.328ZM69.7446 284H68.0646V276.272H69.7446V284ZM74.5639 284.192C73.1773 284.192 72.0733 283.792 71.2519 282.992L72.0199 281.776C72.3079 282.075 72.6973 282.331 73.1879 282.544C73.6786 282.757 74.1639 282.864 74.6439 282.864C75.1346 282.864 75.5079 282.768 75.7639 282.576C76.0306 282.384 76.1639 282.133 76.1639 281.824C76.1639 281.547 76.0039 281.333 75.6839 281.184C75.3639 281.024 74.9746 280.901 74.5159 280.816C74.0573 280.72 73.5986 280.608 73.1399 280.48C72.6813 280.341 72.2919 280.101 71.9719 279.76C71.6519 279.419 71.4919 278.976 71.4919 278.432C71.4919 277.771 71.7639 277.216 72.3079 276.768C72.8519 276.309 73.5933 276.08 74.5319 276.08C75.7159 276.08 76.7186 276.443 77.5399 277.168L76.8359 278.352C76.5906 278.075 76.2653 277.851 75.8599 277.68C75.4546 277.509 75.0173 277.424 74.5479 277.424C74.1106 277.424 73.7586 277.515 73.4919 277.696C73.2359 277.867 73.1079 278.091 73.1079 278.368C73.1079 278.581 73.2199 278.757 73.4439 278.896C73.6786 279.024 73.9666 279.12 74.3079 279.184C74.6599 279.248 75.0386 279.339 75.4439 279.456C75.8493 279.563 76.2226 279.691 76.5639 279.84C76.9159 279.989 77.2039 280.235 77.4279 280.576C77.6626 280.907 77.7799 281.312 77.7799 281.792C77.7799 282.496 77.4973 283.072 76.9319 283.52C76.3666 283.968 75.5773 284.192 74.5639 284.192ZM80.3028 275.328C80.0255 275.328 79.7801 275.227 79.5668 275.024C79.3641 274.821 79.2628 274.576 79.2628 274.288C79.2628 274 79.3641 273.755 79.5668 273.552C79.7801 273.349 80.0255 273.248 80.3028 273.248C80.5908 273.248 80.8361 273.349 81.0388 273.552C81.2415 273.755 81.3428 274 81.3428 274.288C81.3428 274.576 81.2415 274.821 81.0388 275.024C80.8361 275.227 80.5908 275.328 80.3028 275.328ZM81.1508 284H79.4708V276.272H81.1508V284ZM94.3356 284H92.6556V279.168C92.6556 278.101 92.1382 277.568 91.1036 277.568C90.6982 277.568 90.3196 277.669 89.9676 277.872C89.6156 278.075 89.3329 278.32 89.1196 278.608V284H87.4396V276.272H89.1196V277.328C89.4076 276.987 89.7916 276.693 90.2716 276.448C90.7516 276.203 91.2742 276.08 91.8396 276.08C92.6609 276.08 93.2796 276.293 93.6956 276.72C94.1222 277.147 94.3356 277.76 94.3356 278.56V284ZM103.414 284H101.734V282.976C101.008 283.787 100.096 284.192 98.9977 284.192C97.3444 284.192 96.5177 283.376 96.5177 281.744V276.272H98.1977V281.136C98.1977 281.701 98.331 282.107 98.5977 282.352C98.8644 282.587 99.2484 282.704 99.7497 282.704C100.155 282.704 100.534 282.608 100.886 282.416C101.238 282.224 101.52 281.984 101.734 281.696V276.272H103.414V284ZM107.276 284H105.596V273.328H107.276V284ZM111.135 284H109.455V273.328H111.135V284ZM119.715 284H118.035V283.168C117.437 283.851 116.605 284.192 115.539 284.192C114.835 284.192 114.211 283.968 113.667 283.52C113.123 283.061 112.851 282.432 112.851 281.632C112.851 280.811 113.117 280.187 113.651 279.76C114.195 279.333 114.824 279.12 115.539 279.12C116.637 279.12 117.469 279.451 118.035 280.112V278.96C118.035 278.512 117.869 278.16 117.539 277.904C117.208 277.648 116.771 277.52 116.227 277.52C115.363 277.52 114.6 277.845 113.939 278.496L113.251 277.328C114.125 276.496 115.208 276.08 116.499 276.08C117.448 276.08 118.221 276.304 118.819 276.752C119.416 277.2 119.715 277.909 119.715 278.88V284ZM116.195 283.04C117.037 283.04 117.651 282.773 118.035 282.24V281.072C117.651 280.539 117.037 280.272 116.195 280.272C115.715 280.272 115.32 280.4 115.011 280.656C114.701 280.912 114.547 281.248 114.547 281.664C114.547 282.08 114.701 282.416 115.011 282.672C115.32 282.917 115.715 283.04 116.195 283.04ZM132.898 284H131.218V282.976C130.493 283.787 129.581 284.192 128.482 284.192C126.829 284.192 126.002 283.376 126.002 281.744V276.272H127.682V281.136C127.682 281.701 127.815 282.107 128.082 282.352C128.349 282.587 128.733 282.704 129.234 282.704C129.639 282.704 130.018 282.608 130.37 282.416C130.722 282.224 131.005 281.984 131.218 281.696V276.272H132.898V284ZM136.76 284H135.08V273.328H136.76V284ZM141.26 284.192C140.609 284.192 140.113 284.021 139.772 283.68C139.441 283.339 139.276 282.848 139.276 282.208V277.744H137.996V276.272H139.276V274.16H140.956V276.272H142.524V277.744H140.956V281.792C140.956 282.069 141.02 282.293 141.148 282.464C141.276 282.624 141.457 282.704 141.692 282.704C142.033 282.704 142.284 282.613 142.444 282.432L142.844 283.696C142.492 284.027 141.964 284.192 141.26 284.192ZM145.729 284H144.049V276.272H145.729V277.408C146.028 277.024 146.401 276.709 146.849 276.464C147.297 276.219 147.761 276.096 148.241 276.096V277.76C148.092 277.728 147.916 277.712 147.713 277.712C147.361 277.712 146.982 277.819 146.577 278.032C146.182 278.235 145.9 278.469 145.729 278.736V284ZM150.428 275.328C150.15 275.328 149.905 275.227 149.692 275.024C149.489 274.821 149.388 274.576 149.388 274.288C149.388 274 149.489 273.755 149.692 273.552C149.905 273.349 150.15 273.248 150.428 273.248C150.716 273.248 150.961 273.349 151.164 273.552C151.366 273.755 151.468 274 151.468 274.288C151.468 274.576 151.366 274.821 151.164 275.024C150.961 275.227 150.716 275.328 150.428 275.328ZM151.276 284H149.596V276.272H151.276V284ZM156.975 284.192C155.802 284.192 154.842 283.813 154.095 283.056C153.349 282.288 152.975 281.312 152.975 280.128C152.975 278.955 153.349 277.989 154.095 277.232C154.842 276.464 155.802 276.08 156.975 276.08C158.266 276.08 159.253 276.539 159.935 277.456L158.831 278.48C158.405 277.872 157.813 277.568 157.055 277.568C156.351 277.568 155.786 277.808 155.359 278.288C154.933 278.757 154.719 279.371 154.719 280.128C154.719 280.885 154.933 281.504 155.359 281.984C155.786 282.464 156.351 282.704 157.055 282.704C157.791 282.704 158.383 282.4 158.831 281.792L159.935 282.816C159.253 283.733 158.266 284.192 156.975 284.192ZM164.976 284.192C163.803 284.192 162.832 283.819 162.064 283.072C161.307 282.315 160.928 281.333 160.928 280.128C160.928 278.997 161.296 278.043 162.032 277.264C162.779 276.475 163.718 276.08 164.848 276.08C165.99 276.08 166.907 276.475 167.6 277.264C168.304 278.053 168.656 279.061 168.656 280.288V280.688H162.688C162.752 281.296 163.003 281.803 163.44 282.208C163.878 282.613 164.448 282.816 165.152 282.816C165.547 282.816 165.942 282.741 166.336 282.592C166.742 282.443 167.078 282.235 167.344 281.968L168.112 283.072C167.334 283.819 166.288 284.192 164.976 284.192ZM167.024 279.504C167.003 278.971 166.806 278.496 166.432 278.08C166.07 277.664 165.542 277.456 164.848 277.456C164.187 277.456 163.67 277.664 163.296 278.08C162.923 278.485 162.715 278.96 162.672 279.504H167.024ZM172.955 284.192C171.568 284.192 170.464 283.792 169.643 282.992L170.411 281.776C170.699 282.075 171.088 282.331 171.579 282.544C172.069 282.757 172.555 282.864 173.035 282.864C173.525 282.864 173.899 282.768 174.155 282.576C174.421 282.384 174.555 282.133 174.555 281.824C174.555 281.547 174.395 281.333 174.075 281.184C173.755 281.024 173.365 280.901 172.907 280.816C172.448 280.72 171.989 280.608 171.531 280.48C171.072 280.341 170.683 280.101 170.363 279.76C170.043 279.419 169.883 278.976 169.883 278.432C169.883 277.771 170.155 277.216 170.699 276.768C171.243 276.309 171.984 276.08 172.923 276.08C174.107 276.08 175.109 276.443 175.931 277.168L175.227 278.352C174.981 278.075 174.656 277.851 174.251 277.68C173.845 277.509 173.408 277.424 172.939 277.424C172.501 277.424 172.149 277.515 171.883 277.696C171.627 277.867 171.499 278.091 171.499 278.368C171.499 278.581 171.611 278.757 171.835 278.896C172.069 279.024 172.357 279.12 172.699 279.184C173.051 279.248 173.429 279.339 173.835 279.456C174.24 279.563 174.613 279.691 174.955 279.84C175.307 279.989 175.595 280.235 175.819 280.576C176.053 280.907 176.171 281.312 176.171 281.792C176.171 282.496 175.888 283.072 175.323 283.52C174.757 283.968 173.968 284.192 172.955 284.192ZM188.371 284H186.691V283.168C186.093 283.851 185.261 284.192 184.195 284.192C183.491 284.192 182.867 283.968 182.323 283.52C181.779 283.061 181.507 282.432 181.507 281.632C181.507 280.811 181.773 280.187 182.307 279.76C182.851 279.333 183.48 279.12 184.195 279.12C185.293 279.12 186.125 279.451 186.691 280.112V278.96C186.691 278.512 186.525 278.16 186.195 277.904C185.864 277.648 185.427 277.52 184.883 277.52C184.019 277.52 183.256 277.845 182.595 278.496L181.907 277.328C182.781 276.496 183.864 276.08 185.155 276.08C186.104 276.08 186.877 276.304 187.475 276.752C188.072 277.2 188.371 277.909 188.371 278.88V284ZM184.851 283.04C185.693 283.04 186.307 282.773 186.691 282.24V281.072C186.307 280.539 185.693 280.272 184.851 280.272C184.371 280.272 183.976 280.4 183.667 280.656C183.357 280.912 183.203 281.248 183.203 281.664C183.203 282.08 183.357 282.416 183.667 282.672C183.976 282.917 184.371 283.04 184.851 283.04ZM201.701 284H200.021V278.96C200.021 278.032 199.6 277.568 198.757 277.568C198.405 277.568 198.064 277.669 197.733 277.872C197.402 278.075 197.146 278.315 196.965 278.592V284H195.285V278.96C195.285 278.032 194.858 277.568 194.005 277.568C193.664 277.568 193.328 277.669 192.997 277.872C192.677 278.075 192.421 278.32 192.229 278.608V284H190.549V276.272H192.229V277.328C192.421 277.04 192.752 276.763 193.221 276.496C193.701 276.219 194.208 276.08 194.741 276.08C195.861 276.08 196.565 276.555 196.853 277.504C197.098 277.12 197.461 276.789 197.941 276.512C198.421 276.224 198.933 276.08 199.477 276.08C200.96 276.08 201.701 276.859 201.701 278.416V284ZM207.445 284.192C206.272 284.192 205.301 283.819 204.533 283.072C203.776 282.315 203.397 281.333 203.397 280.128C203.397 278.997 203.765 278.043 204.501 277.264C205.248 276.475 206.186 276.08 207.317 276.08C208.458 276.08 209.376 276.475 210.069 277.264C210.773 278.053 211.125 279.061 211.125 280.288V280.688H205.157C205.221 281.296 205.472 281.803 205.909 282.208C206.346 282.613 206.917 282.816 207.621 282.816C208.016 282.816 208.41 282.741 208.805 282.592C209.21 282.443 209.546 282.235 209.813 281.968L210.581 283.072C209.802 283.819 208.757 284.192 207.445 284.192ZM209.493 279.504C209.472 278.971 209.274 278.496 208.901 278.08C208.538 277.664 208.01 277.456 207.317 277.456C206.656 277.456 206.138 277.664 205.765 278.08C205.392 278.485 205.184 278.96 205.141 279.504H209.493ZM215.103 284.192C214.453 284.192 213.957 284.021 213.615 283.68C213.285 283.339 213.119 282.848 213.119 282.208V277.744H211.839V276.272H213.119V274.16H214.799V276.272H216.367V277.744H214.799V281.792C214.799 282.069 214.863 282.293 214.991 282.464C215.119 282.624 215.301 282.704 215.535 282.704C215.877 282.704 216.127 282.613 216.287 282.432L216.687 283.696C216.335 284.027 215.807 284.192 215.103 284.192ZM225.522 284.192C224.349 284.192 223.389 283.813 222.642 283.056C221.895 282.288 221.522 281.312 221.522 280.128C221.522 278.955 221.895 277.989 222.642 277.232C223.389 276.464 224.349 276.08 225.522 276.08C226.813 276.08 227.799 276.539 228.482 277.456L227.378 278.48C226.951 277.872 226.359 277.568 225.602 277.568C224.898 277.568 224.333 277.808 223.906 278.288C223.479 278.757 223.266 279.371 223.266 280.128C223.266 280.885 223.479 281.504 223.906 281.984C224.333 282.464 224.898 282.704 225.602 282.704C226.338 282.704 226.93 282.4 227.378 281.792L228.482 282.816C227.799 283.733 226.813 284.192 225.522 284.192ZM231.635 284H229.955V276.272H231.635V277.408C231.934 277.024 232.307 276.709 232.755 276.464C233.203 276.219 233.667 276.096 234.147 276.096V277.76C233.998 277.728 233.822 277.712 233.619 277.712C233.267 277.712 232.889 277.819 232.483 278.032C232.089 278.235 231.806 278.469 231.635 278.736V284ZM241.902 284H240.222V283.168C239.625 283.851 238.793 284.192 237.726 284.192C237.022 284.192 236.398 283.968 235.854 283.52C235.31 283.061 235.038 282.432 235.038 281.632C235.038 280.811 235.305 280.187 235.838 279.76C236.382 279.333 237.011 279.12 237.726 279.12C238.825 279.12 239.657 279.451 240.222 280.112V278.96C240.222 278.512 240.057 278.16 239.726 277.904C239.395 277.648 238.958 277.52 238.414 277.52C237.55 277.52 236.787 277.845 236.126 278.496L235.438 277.328C236.313 276.496 237.395 276.08 238.686 276.08C239.635 276.08 240.409 276.304 241.006 276.752C241.603 277.2 241.902 277.909 241.902 278.88V284ZM238.382 283.04C239.225 283.04 239.838 282.773 240.222 282.24V281.072C239.838 280.539 239.225 280.272 238.382 280.272C237.902 280.272 237.507 280.4 237.198 280.656C236.889 280.912 236.734 281.248 236.734 281.664C236.734 282.08 236.889 282.416 237.198 282.672C237.507 282.917 237.902 283.04 238.382 283.04ZM246.72 284.192C245.334 284.192 244.23 283.792 243.408 282.992L244.176 281.776C244.464 282.075 244.854 282.331 245.344 282.544C245.835 282.757 246.32 282.864 246.8 282.864C247.291 282.864 247.664 282.768 247.92 282.576C248.187 282.384 248.32 282.133 248.32 281.824C248.32 281.547 248.16 281.333 247.84 281.184C247.52 281.024 247.131 280.901 246.672 280.816C246.214 280.72 245.755 280.608 245.296 280.48C244.838 280.341 244.448 280.101 244.128 279.76C243.808 279.419 243.648 278.976 243.648 278.432C243.648 277.771 243.92 277.216 244.464 276.768C245.008 276.309 245.75 276.08 246.688 276.08C247.872 276.08 248.875 276.443 249.696 277.168L248.992 278.352C248.747 278.075 248.422 277.851 248.016 277.68C247.611 277.509 247.174 277.424 246.704 277.424C246.267 277.424 245.915 277.515 245.648 277.696C245.392 277.867 245.264 278.091 245.264 278.368C245.264 278.581 245.376 278.757 245.6 278.896C245.835 279.024 246.123 279.12 246.464 279.184C246.816 279.248 247.195 279.339 247.6 279.456C248.006 279.563 248.379 279.691 248.72 279.84C249.072 279.989 249.36 280.235 249.584 280.576C249.819 280.907 249.936 281.312 249.936 281.792C249.936 282.496 249.654 283.072 249.088 283.52C248.523 283.968 247.734 284.192 246.72 284.192ZM58.1658 306.192C57.5151 306.192 57.0191 306.021 56.6778 305.68C56.3471 305.339 56.1818 304.848 56.1818 304.208V299.744H54.9018V298.272H56.1818V296.16H57.8618V298.272H59.4298V299.744H57.8618V303.792C57.8618 304.069 57.9258 304.293 58.0538 304.464C58.1818 304.624 58.3631 304.704 58.5978 304.704C58.9391 304.704 59.1898 304.613 59.3498 304.432L59.7498 305.696C59.3978 306.027 58.8698 306.192 58.1658 306.192ZM61.7872 297.328C61.5099 297.328 61.2645 297.227 61.0512 297.024C60.8485 296.821 60.7472 296.576 60.7472 296.288C60.7472 296 60.8485 295.755 61.0512 295.552C61.2645 295.349 61.5099 295.248 61.7872 295.248C62.0752 295.248 62.3205 295.349 62.5232 295.552C62.7259 295.755 62.8272 296 62.8272 296.288C62.8272 296.576 62.7259 296.821 62.5232 297.024C62.3205 297.227 62.0752 297.328 61.7872 297.328ZM62.6352 306H60.9552V298.272H62.6352V306ZM71.7106 306H70.0306V301.168C70.0306 300.101 69.5132 299.568 68.4786 299.568C68.0732 299.568 67.6946 299.669 67.3426 299.872C66.9906 300.075 66.7079 300.32 66.4946 300.608V306H64.8146V298.272H66.4946V299.328C66.7826 298.987 67.1666 298.693 67.6466 298.448C68.1266 298.203 68.6492 298.08 69.2146 298.08C70.0359 298.08 70.6546 298.293 71.0706 298.72C71.4972 299.147 71.7106 299.76 71.7106 300.56V306ZM77.4127 306.192C76.2394 306.192 75.2794 305.813 74.5327 305.056C73.786 304.288 73.4127 303.312 73.4127 302.128C73.4127 300.955 73.786 299.989 74.5327 299.232C75.2794 298.464 76.2394 298.08 77.4127 298.08C78.7034 298.08 79.69 298.539 80.3727 299.456L79.2687 300.48C78.842 299.872 78.25 299.568 77.4927 299.568C76.7887 299.568 76.2234 299.808 75.7967 300.288C75.37 300.757 75.1567 301.371 75.1567 302.128C75.1567 302.885 75.37 303.504 75.7967 303.984C76.2234 304.464 76.7887 304.704 77.4927 304.704C78.2287 304.704 78.8207 304.4 79.2687 303.792L80.3727 304.816C79.69 305.733 78.7034 306.192 77.4127 306.192ZM82.6778 297.328C82.4005 297.328 82.1551 297.227 81.9418 297.024C81.7391 296.821 81.6378 296.576 81.6378 296.288C81.6378 296 81.7391 295.755 81.9418 295.552C82.1551 295.349 82.4005 295.248 82.6778 295.248C82.9658 295.248 83.2111 295.349 83.4138 295.552C83.6165 295.755 83.7178 296 83.7178 296.288C83.7178 296.576 83.6165 296.821 83.4138 297.024C83.2111 297.227 82.9658 297.328 82.6778 297.328ZM83.5258 306H81.8458V298.272H83.5258V306ZM92.8252 306H91.1452V304.944C90.5052 305.776 89.6785 306.192 88.6652 306.192C87.6519 306.192 86.8252 305.829 86.1852 305.104C85.5452 304.379 85.2252 303.392 85.2252 302.144C85.2252 300.907 85.5452 299.92 86.1852 299.184C86.8252 298.448 87.6519 298.08 88.6652 298.08C89.6785 298.08 90.5052 298.501 91.1452 299.344V295.328H92.8252V306ZM89.1452 304.704C89.5399 304.704 89.9239 304.608 90.2972 304.416C90.6705 304.224 90.9532 303.979 91.1452 303.68V300.608C90.9532 300.309 90.6705 300.064 90.2972 299.872C89.9239 299.669 89.5399 299.568 89.1452 299.568C88.4839 299.568 87.9559 299.808 87.5612 300.288C87.1665 300.768 86.9692 301.387 86.9692 302.144C86.9692 302.901 87.1665 303.52 87.5612 304C87.9559 304.469 88.4839 304.704 89.1452 304.704ZM101.898 306H100.218V304.976C99.4927 305.787 98.5807 306.192 97.4821 306.192C95.8287 306.192 95.0021 305.376 95.0021 303.744V298.272H96.6821V303.136C96.6821 303.701 96.8154 304.107 97.0821 304.352C97.3487 304.587 97.7327 304.704 98.2341 304.704C98.6394 304.704 99.0181 304.608 99.3701 304.416C99.7221 304.224 100.005 303.984 100.218 303.696V298.272H101.898V306ZM110.976 306H109.296V301.168C109.296 300.101 108.779 299.568 107.744 299.568C107.339 299.568 106.96 299.669 106.608 299.872C106.256 300.075 105.974 300.32 105.76 300.608V306H104.08V298.272H105.76V299.328C106.048 298.987 106.432 298.693 106.912 298.448C107.392 298.203 107.915 298.08 108.48 298.08C109.302 298.08 109.92 298.293 110.336 298.72C110.763 299.147 110.976 299.76 110.976 300.56V306ZM115.478 306.192C114.828 306.192 114.332 306.021 113.99 305.68C113.66 305.339 113.494 304.848 113.494 304.208V299.744H112.214V298.272H113.494V296.16H115.174V298.272H116.742V299.744H115.174V303.792C115.174 304.069 115.238 304.293 115.366 304.464C115.494 304.624 115.676 304.704 115.91 304.704C116.252 304.704 116.502 304.613 116.662 304.432L117.062 305.696C116.71 306.027 116.182 306.192 115.478 306.192ZM129.273 306H127.593V301.168C127.593 300.101 127.076 299.568 126.041 299.568C125.636 299.568 125.257 299.669 124.905 299.872C124.553 300.075 124.27 300.32 124.057 300.608V306H122.377V298.272H124.057V299.328C124.345 298.987 124.729 298.693 125.209 298.448C125.689 298.203 126.212 298.08 126.777 298.08C127.598 298.08 128.217 298.293 128.633 298.72C129.06 299.147 129.273 299.76 129.273 300.56V306ZM135.023 306.192C133.85 306.192 132.879 305.819 132.111 305.072C131.354 304.315 130.975 303.333 130.975 302.128C130.975 300.997 131.343 300.043 132.079 299.264C132.826 298.475 133.765 298.08 134.895 298.08C136.037 298.08 136.954 298.475 137.647 299.264C138.351 300.053 138.703 301.061 138.703 302.288V302.688H132.735C132.799 303.296 133.05 303.803 133.487 304.208C133.925 304.613 134.495 304.816 135.199 304.816C135.594 304.816 135.989 304.741 136.383 304.592C136.789 304.443 137.125 304.235 137.391 303.968L138.159 305.072C137.381 305.819 136.335 306.192 135.023 306.192ZM137.071 301.504C137.05 300.971 136.853 300.496 136.479 300.08C136.117 299.664 135.589 299.456 134.895 299.456C134.234 299.456 133.717 299.664 133.343 300.08C132.97 300.485 132.762 300.96 132.719 301.504H137.071ZM143.881 306.192C142.708 306.192 141.748 305.813 141.001 305.056C140.255 304.288 139.881 303.312 139.881 302.128C139.881 300.955 140.255 299.989 141.001 299.232C141.748 298.464 142.708 298.08 143.881 298.08C145.172 298.08 146.159 298.539 146.841 299.456L145.737 300.48C145.311 299.872 144.719 299.568 143.961 299.568C143.257 299.568 142.692 299.808 142.265 300.288C141.839 300.757 141.625 301.371 141.625 302.128C141.625 302.885 141.839 303.504 142.265 303.984C142.692 304.464 143.257 304.704 143.961 304.704C144.697 304.704 145.289 304.4 145.737 303.792L146.841 304.816C146.159 305.733 145.172 306.192 143.881 306.192ZM149.963 305.856C149.739 306.069 149.477 306.176 149.179 306.176C148.88 306.176 148.619 306.069 148.395 305.856C148.171 305.632 148.059 305.365 148.059 305.056C148.059 304.747 148.171 304.485 148.395 304.272C148.619 304.048 148.88 303.936 149.179 303.936C149.477 303.936 149.739 304.048 149.963 304.272C150.187 304.485 150.299 304.747 150.299 305.056C150.299 305.365 150.187 305.632 149.963 305.856ZM160.362 306H156.394V295.328H160.362C162.015 295.328 163.359 295.824 164.394 296.816C165.428 297.808 165.946 299.093 165.946 300.672C165.946 302.24 165.428 303.52 164.394 304.512C163.37 305.504 162.026 306 160.362 306ZM160.362 304.352C161.482 304.352 162.372 304 163.034 303.296C163.695 302.592 164.026 301.717 164.026 300.672C164.026 299.595 163.7 298.709 163.05 298.016C162.41 297.323 161.514 296.976 160.362 296.976H158.266V304.352H160.362ZM171.193 306.192C169.999 306.192 169.039 305.803 168.313 305.024C167.588 304.235 167.225 303.269 167.225 302.128C167.225 300.987 167.588 300.027 168.313 299.248C169.039 298.469 169.999 298.08 171.193 298.08C172.399 298.08 173.364 298.469 174.089 299.248C174.815 300.027 175.177 300.987 175.177 302.128C175.177 303.28 174.815 304.245 174.089 305.024C173.364 305.803 172.399 306.192 171.193 306.192ZM171.193 304.704C171.887 304.704 172.431 304.459 172.825 303.968C173.231 303.467 173.433 302.853 173.433 302.128C173.433 301.413 173.231 300.811 172.825 300.32C172.431 299.819 171.887 299.568 171.193 299.568C170.511 299.568 169.967 299.819 169.561 300.32C169.167 300.811 168.969 301.413 168.969 302.128C168.969 302.853 169.167 303.467 169.561 303.968C169.967 304.459 170.511 304.704 171.193 304.704ZM178.557 306H176.877V295.328H178.557V306ZM184.224 306.192C183.03 306.192 182.07 305.803 181.344 305.024C180.619 304.235 180.256 303.269 180.256 302.128C180.256 300.987 180.619 300.027 181.344 299.248C182.07 298.469 183.03 298.08 184.224 298.08C185.43 298.08 186.395 298.469 187.12 299.248C187.846 300.027 188.208 300.987 188.208 302.128C188.208 303.28 187.846 304.245 187.12 305.024C186.395 305.803 185.43 306.192 184.224 306.192ZM184.224 304.704C184.918 304.704 185.462 304.459 185.856 303.968C186.262 303.467 186.464 302.853 186.464 302.128C186.464 301.413 186.262 300.811 185.856 300.32C185.462 299.819 184.918 299.568 184.224 299.568C183.542 299.568 182.998 299.819 182.592 300.32C182.198 300.811 182 301.413 182 302.128C182 302.853 182.198 303.467 182.592 303.968C182.998 304.459 183.542 304.704 184.224 304.704ZM191.588 306H189.908V298.272H191.588V299.408C191.887 299.024 192.26 298.709 192.708 298.464C193.156 298.219 193.62 298.096 194.1 298.096V299.76C193.951 299.728 193.775 299.712 193.572 299.712C193.22 299.712 192.842 299.819 192.436 300.032C192.042 300.235 191.759 300.469 191.588 300.736V306ZM210.717 306H209.037V300.96C209.037 300.032 208.615 299.568 207.773 299.568C207.421 299.568 207.079 299.669 206.749 299.872C206.418 300.075 206.162 300.315 205.981 300.592V306H204.301V300.96C204.301 300.032 203.874 299.568 203.021 299.568C202.679 299.568 202.343 299.669 202.013 299.872C201.693 300.075 201.437 300.32 201.245 300.608V306H199.565V298.272H201.245V299.328C201.437 299.04 201.767 298.763 202.237 298.496C202.717 298.219 203.223 298.08 203.757 298.08C204.877 298.08 205.581 298.555 205.869 299.504C206.114 299.12 206.477 298.789 206.957 298.512C207.437 298.224 207.949 298.08 208.493 298.08C209.975 298.08 210.717 298.859 210.717 300.416V306ZM219.293 306H217.613V305.168C217.015 305.851 216.183 306.192 215.117 306.192C214.413 306.192 213.789 305.968 213.245 305.52C212.701 305.061 212.429 304.432 212.429 303.632C212.429 302.811 212.695 302.187 213.229 301.76C213.773 301.333 214.402 301.12 215.117 301.12C216.215 301.12 217.047 301.451 217.613 302.112V300.96C217.613 300.512 217.447 300.16 217.117 299.904C216.786 299.648 216.349 299.52 215.805 299.52C214.941 299.52 214.178 299.845 213.517 300.496L212.829 299.328C213.703 298.496 214.786 298.08 216.077 298.08C217.026 298.08 217.799 298.304 218.397 298.752C218.994 299.2 219.293 299.909 219.293 300.88V306ZM215.773 305.04C216.615 305.04 217.229 304.773 217.613 304.24V303.072C217.229 302.539 216.615 302.272 215.773 302.272C215.293 302.272 214.898 302.4 214.589 302.656C214.279 302.912 214.125 303.248 214.125 303.664C214.125 304.08 214.279 304.416 214.589 304.672C214.898 304.917 215.293 305.04 215.773 305.04ZM224.607 309.136C223.295 309.136 222.217 308.752 221.375 307.984L222.159 306.768C222.735 307.429 223.551 307.76 224.607 307.76C225.247 307.76 225.785 307.589 226.223 307.248C226.671 306.917 226.895 306.389 226.895 305.664V304.736C226.233 305.589 225.407 306.016 224.415 306.016C223.401 306.016 222.575 305.664 221.935 304.96C221.305 304.256 220.991 303.285 220.991 302.048C220.991 300.821 221.305 299.856 221.935 299.152C222.575 298.437 223.401 298.08 224.415 298.08C225.428 298.08 226.255 298.501 226.895 299.344V298.272H228.575V305.6C228.575 306.261 228.457 306.832 228.223 307.312C227.999 307.803 227.689 308.171 227.295 308.416C226.9 308.672 226.479 308.853 226.031 308.96C225.593 309.077 225.119 309.136 224.607 309.136ZM224.911 304.528C225.295 304.528 225.673 304.427 226.047 304.224C226.42 304.021 226.703 303.776 226.895 303.488V300.608C226.703 300.32 226.42 300.075 226.047 299.872C225.673 299.669 225.295 299.568 224.911 299.568C224.249 299.568 223.721 299.797 223.327 300.256C222.932 300.704 222.735 301.301 222.735 302.048C222.735 302.795 222.932 303.397 223.327 303.856C223.721 304.304 224.249 304.528 224.911 304.528ZM237.648 306H235.968V301.168C235.968 300.101 235.451 299.568 234.416 299.568C234.011 299.568 233.632 299.669 233.28 299.872C232.928 300.075 232.645 300.32 232.432 300.608V306H230.752V298.272H232.432V299.328C232.72 298.987 233.104 298.693 233.584 298.448C234.064 298.203 234.587 298.08 235.152 298.08C235.973 298.08 236.592 298.293 237.008 298.72C237.435 299.147 237.648 299.76 237.648 300.56V306ZM246.23 306H244.55V305.168C243.953 305.851 243.121 306.192 242.054 306.192C241.35 306.192 240.726 305.968 240.182 305.52C239.638 305.061 239.366 304.432 239.366 303.632C239.366 302.811 239.633 302.187 240.166 301.76C240.71 301.333 241.34 301.12 242.054 301.12C243.153 301.12 243.985 301.451 244.55 302.112V300.96C244.55 300.512 244.385 300.16 244.054 299.904C243.724 299.648 243.286 299.52 242.742 299.52C241.878 299.52 241.116 299.845 240.454 300.496L239.766 299.328C240.641 298.496 241.724 298.08 243.014 298.08C243.964 298.08 244.737 298.304 245.334 298.752C245.932 299.2 246.23 299.909 246.23 300.88V306ZM242.71 305.04C243.553 305.04 244.166 304.773 244.55 304.24V303.072C244.166 302.539 243.553 302.272 242.71 302.272C242.23 302.272 241.836 302.4 241.526 302.656C241.217 302.912 241.062 303.248 241.062 303.664C241.062 304.08 241.217 304.416 241.526 304.672C241.836 304.917 242.23 305.04 242.71 305.04ZM250.056 305.856C249.832 306.069 249.571 306.176 249.272 306.176C248.974 306.176 248.712 306.069 248.488 305.856C248.264 305.632 248.152 305.365 248.152 305.056C248.152 304.747 248.264 304.485 248.488 304.272C248.712 304.048 248.974 303.936 249.272 303.936C249.571 303.936 249.832 304.048 250.056 304.272C250.28 304.485 250.392 304.747 250.392 305.056C250.392 305.365 250.28 305.632 250.056 305.856Z" fill="white"/>
</svg>
